<svg xmlns="http://www.w3.org/2000/svg" viewBox="0 0 1200 630" width="1200" height="630">
	<style>
		tspan { white-space:pre }
		.shp0 { fill: #ffffff } 
	</style>
	<path id="ANIME SOURCE " class="shp0" d="M231.02,310l57.55,-165.43h41.47l57.32,165.43h-46.13l-10.02,-32.39h-44.04l-9.79,32.39zM293.93,247.32h30.06l-14.68,-51.26zM512.25,310l-65.71,-81.32v81.32h-45.43v-165.43h35.42l66.4,84.11v-84.11h45.44v165.43zM622.22,310h-45.43v-165.43h45.43zM821.2,310h-45.44v-87.14l-27.73,61.28h-24.23l-27.73,-61.28v87.14h-45.43v-165.43h49.63l35.65,77.82l35.88,-77.82h49.4zM895.07,270.39h72.46v39.61h-117.9v-165.43h115.8v39.61h-70.37v23.3h60.11v36.81h-60.11zM336.46,367.37l-15.29,29.3c-3.64,-2.18 -7.4,-4.13 -11.28,-5.82c-3.28,-1.46 -6.98,-2.79 -11.1,-4c-4,-1.33 -7.95,-2 -11.83,-2c-3.15,0 -5.7,0.49 -7.64,1.46c-1.82,0.97 -2.73,2.61 -2.73,4.91c0,1.7 0.55,3.09 1.64,4.19c1.09,1.09 2.67,2.12 4.73,3.09c2.06,0.85 4.55,1.7 7.46,2.55c3.03,0.85 6.43,1.88 10.19,3.09c5.95,1.82 11.28,3.82 16.02,6.01c4.85,2.18 8.98,4.79 12.38,7.83c3.4,2.91 6.01,6.49 7.83,10.74c1.82,4.25 2.73,9.4 2.73,15.47c0,7.77 -1.46,14.32 -4.37,19.66c-2.79,5.22 -6.55,9.4 -11.28,12.56c-4.61,3.15 -9.89,5.46 -15.83,6.92c-5.82,1.33 -11.71,2 -17.65,2c-4.73,0 -9.59,-0.36 -14.56,-1.09c-4.97,-0.73 -9.95,-1.76 -14.92,-3.09c-4.85,-1.33 -9.59,-2.91 -14.2,-4.73c-4.49,-1.82 -8.68,-3.88 -12.56,-6.19l15.29,-31.12c4.25,2.67 8.68,5.04 13.29,7.1c3.88,1.82 8.25,3.46 13.1,4.91c4.97,1.46 10.01,2.18 15.11,2.18c3.88,0 6.55,-0.49 8.01,-1.46c1.58,-1.09 2.37,-2.49 2.37,-4.19c0,-1.82 -0.79,-3.34 -2.37,-4.55c-1.46,-1.33 -3.52,-2.49 -6.19,-3.46c-2.67,-0.97 -5.76,-1.94 -9.28,-2.91c-3.4,-0.97 -7.04,-2.12 -10.92,-3.46c-5.7,-1.94 -10.62,-4 -14.74,-6.19c-4.13,-2.31 -7.52,-4.85 -10.19,-7.64c-2.67,-2.91 -4.67,-6.19 -6.01,-9.83c-1.21,-3.64 -1.82,-7.83 -1.82,-12.56c0,-7.16 1.27,-13.47 3.82,-18.93c2.67,-5.46 6.25,-10.01 10.74,-13.65c4.49,-3.64 9.59,-6.37 15.29,-8.19c5.82,-1.94 11.95,-2.91 18.38,-2.91c4.73,0 9.34,0.49 13.83,1.46c4.49,0.85 8.8,2 12.92,3.46c4.25,1.33 8.19,2.85 11.83,4.55c3.64,1.58 6.92,3.09 9.83,4.55zM413.45,484.76c-9.83,0 -18.75,-1.88 -26.75,-5.64c-8.01,-3.76 -14.86,-8.68 -20.57,-14.74c-5.7,-6.19 -10.13,-13.23 -13.29,-21.11c-3.15,-7.89 -4.73,-16.02 -4.73,-24.39c0,-8.49 1.64,-16.68 4.91,-24.57c3.28,-7.89 7.83,-14.8 13.65,-20.75c5.95,-6.07 12.92,-10.86 20.93,-14.38c8.13,-3.64 16.99,-5.46 26.57,-5.46c9.83,0 18.75,1.88 26.75,5.64c8.01,3.76 14.86,8.74 20.57,14.92c5.7,6.19 10.07,13.23 13.1,21.11c3.15,7.89 4.73,15.96 4.73,24.21c0,8.49 -1.64,16.68 -4.91,24.57c-3.28,7.77 -7.83,14.68 -13.65,20.75c-5.82,5.95 -12.8,10.74 -20.93,14.38c-8.01,3.64 -16.8,5.46 -26.39,5.46zM384.15,419.24c0,4.37 0.61,8.61 1.82,12.74c1.21,4 3.03,7.58 5.46,10.74c2.43,3.15 5.46,5.7 9.1,7.64c3.76,1.94 8.19,2.91 13.29,2.91c5.1,0 9.52,-0.97 13.29,-2.91c3.76,-2.06 6.79,-4.67 9.1,-7.83c2.43,-3.28 4.19,-6.98 5.28,-11.1c1.21,-4.13 1.82,-8.31 1.82,-12.56c0,-4.37 -0.61,-8.55 -1.82,-12.56c-1.21,-4.13 -3.09,-7.7 -5.64,-10.74c-2.43,-3.15 -5.52,-5.64 -9.28,-7.46c-3.64,-1.94 -7.95,-2.91 -12.92,-2.91c-5.1,0 -9.52,0.97 -13.29,2.91c-3.64,1.94 -6.67,4.55 -9.1,7.83c-2.43,3.15 -4.25,6.79 -5.46,10.92c-1.09,4 -1.64,8.13 -1.64,12.38zM550.86,453.27c4.13,0 7.64,-0.91 10.56,-2.73c2.91,-1.82 5.28,-4.19 7.1,-7.1c1.82,-3.03 3.15,-6.49 4,-10.37c0.85,-3.88 1.27,-7.95 1.27,-12.19v-66.43h35.49v66.43c0,8.98 -1.15,17.41 -3.46,25.3c-2.31,7.77 -5.88,14.5 -10.74,20.2c-4.85,5.7 -10.98,10.19 -18.38,13.47c-7.28,3.28 -15.89,4.91 -25.84,4.91c-10.31,0 -19.17,-1.7 -26.57,-5.1c-7.28,-3.52 -13.29,-8.19 -18.02,-14.01c-4.73,-5.82 -8.19,-12.56 -10.37,-20.2c-2.18,-7.77 -3.28,-15.96 -3.28,-24.57v-66.43h35.49v66.43c0,4.25 0.42,8.37 1.27,12.38c0.85,3.88 2.18,7.34 4,10.37c1.82,2.91 4.13,5.28 6.92,7.1c2.91,1.7 6.43,2.55 10.56,2.55zM665.15,483.67h-35.49v-129.22h59.33c6.31,0 12.13,1.33 17.47,4c5.34,2.55 9.89,5.95 13.65,10.19c3.88,4.13 6.92,8.92 9.1,14.38c2.18,5.34 3.28,10.74 3.28,16.2c0,7.52 -1.64,14.56 -4.91,21.11c-3.28,6.43 -7.83,11.71 -13.65,15.83l27.3,47.5h-40.04l-22.75,-39.68h-13.29zM665.15,385.39v27.66h22.39c2.18,0 4.19,-1.21 6.01,-3.64c1.94,-2.43 2.91,-5.82 2.91,-10.19c0,-4.49 -1.09,-7.89 -3.28,-10.19c-2.18,-2.43 -4.37,-3.64 -6.55,-3.64zM743.78,417.97c0,-7.89 1.46,-15.65 4.37,-23.3c3.03,-7.64 7.4,-14.5 13.1,-20.57c5.7,-6.07 12.62,-10.98 20.75,-14.74c8.13,-3.76 17.41,-5.64 27.85,-5.64c12.5,0 23.3,2.61 32.4,7.83c9.22,5.1 16.08,11.89 20.57,20.38l-27.12,19.29c-1.21,-3.15 -2.85,-5.76 -4.91,-7.83c-1.94,-2.06 -4.13,-3.7 -6.55,-4.91c-2.43,-1.21 -4.97,-2.06 -7.64,-2.55c-2.55,-0.49 -5.04,-0.73 -7.46,-0.73c-5.1,0 -9.52,1.03 -13.29,3.09c-3.64,1.94 -6.67,4.55 -9.1,7.83c-2.31,3.15 -4.06,6.79 -5.28,10.92c-1.09,4 -1.64,8.01 -1.64,12.01c0,4.49 0.67,8.8 2,12.92c1.33,4.13 3.28,7.77 5.82,10.92c2.55,3.15 5.64,5.7 9.28,7.64c3.76,1.82 7.95,2.73 12.56,2.73c2.43,0 4.91,-0.24 7.46,-0.73c2.55,-0.61 4.97,-1.52 7.28,-2.73c2.43,-1.33 4.55,-2.97 6.37,-4.91c1.94,-2.06 3.46,-4.55 4.55,-7.46l28.94,17.29c-1.94,4.73 -4.91,8.98 -8.92,12.74c-3.88,3.76 -8.37,6.92 -13.47,9.46c-4.97,2.55 -10.37,4.49 -16.2,5.82c-5.7,1.33 -11.28,2 -16.74,2c-9.59,0 -18.38,-1.88 -26.39,-5.64c-7.89,-3.88 -14.74,-8.98 -20.57,-15.29c-5.7,-6.31 -10.13,-13.47 -13.29,-21.48c-3.15,-8.01 -4.73,-16.14 -4.73,-24.39zM912.13,452.73h56.6v30.94h-92.09v-129.22h90.45v30.94h-54.96v18.2h46.96v28.76h-46.96z" />
</svg>